# xmcd
#
# Track frame offsets: 
#        150
#        25670
#        42953
#        57168
#        75060
#        93043
#        108955
#        125713
#        157913
#        171600
#        193938
#
# Disc length: 2845 seconds
#
# Revision: 1
# Processed by: cddbd v1.5.2PL0 Copyright (c) Steve Scherf et al.
# Submitted via: ExactAudioCopyFreeDBPlugin 1.0
#
DISCID=800b1b0b
DTITLE=Moonshine Brothers - Live
DYEAR=1991
DGENRE=Blues
TTITLE0=Talk to me baby
TTITLE1=Going back to Louisiana
TTITLE2=Love me darlin'
TTITLE3=I know
TTITLE4=Born under a bad sign
TTITLE5=Maybe someday baby
TTITLE6=The thrill is gone
TTITLE7=Sweet home Chicago
TTITLE8=Walkin' by myself
TTITLE9=I rather do my blues for you
TTITLE10=Givin' it up for your love
EXTD=
EXTT0=
EXTT1=
EXTT2=
EXTT3=
EXTT4=
EXTT5=
EXTT6=
EXTT7=
EXTT8=
EXTT9=
EXTT10=
PLAYORDER=
